<?xml version="1.0" standalone="no"?>
<!DOCTYPE svg PUBLIC "-//W3C//DTD SVG 20010904//EN"
 "http://www.w3.org/TR/2001/REC-SVG-20010904/DTD/svg10.dtd">
<svg version="1.0" xmlns="http://www.w3.org/2000/svg"
 width="1840.000000pt" height="1840.000000pt" viewBox="0 0 1840.000000 1840.000000"
 preserveAspectRatio="xMidYMid meet">
<metadata>
Created by potrace 1.14, written by Peter Selinger 2001-2017
</metadata>
<g transform="translate(0.000000,1840.000000) scale(0.100000,-0.100000)"
fill="#000000" stroke="none">
<path d="M590 12700 c-4 -236 -1 -2453 3 -2456 6 -6 448 -6 454 0 3 3 6 217 7
478 l1 472 597 0 c407 0 599 3 601 11 2 5 3 93 3 195 l-1 185 -600 1 -600 0
-2 377 c-1 207 2 378 5 378 4 1 306 3 672 4 366 2 668 3 673 4 4 0 7 87 7 191
0 105 -3 190 -7 191 -5 0 -414 2 -911 2 l-902 2 0 -35z"/>
<path d="M2862 12725 c-8 -13 -8 -2476 0 -2481 5 -4 1233 -6 1779 -4 l86 0 -1
193 -1 192 -630 2 c-346 1 -663 2 -703 3 l-73 0 1 38 c0 20 0 46 1 57 0 11 0
26 0 33 -2 24 -2 43 0 111 0 38 -1 73 -4 78 -3 4 -2 27 3 51 4 23 3 45 -1 48
-5 3 -7 10 -3 15 9 15 11 108 3 121 -4 6 -3 23 1 38 4 15 4 33 0 41 -4 8 -4
23 0 34 7 20 16 20 604 20 328 0 597 2 597 5 1 3 2 87 3 188 1 176 1 183 -19
187 -11 2 -279 3 -596 3 -317 -1 -581 2 -588 6 -6 4 -8 12 -5 18 8 13 9 96 1
104 -3 3 -2 16 3 28 4 13 4 29 0 36 -5 8 -5 21 -1 29 4 9 5 32 1 51 -3 19 -3
52 1 73 3 20 2 40 -2 43 -5 3 -6 12 0 21 4 9 5 31 1 49 -4 19 -4 36 0 39 5 3
5 18 0 34 -4 15 -4 34 0 42 5 7 6 17 3 22 -3 4 -2 18 1 30 l5 22 674 0 673 0
0 194 -1 195 -903 0 c-565 1 -906 -3 -910 -9z"/>
<path d="M5256 12730 c-10 -4 -12 -249 -12 -1247 l0 -1243 85 -1 c168 -1 365
2 371 6 4 3 8 161 8 352 0 192 1 353 1 359 1 7 106 10 331 11 l330 0 62 -91
c34 -50 66 -92 70 -94 4 -2 8 -10 8 -18 0 -8 5 -14 10 -14 6 0 10 -4 10 -10 0
-5 20 -36 45 -69 25 -32 45 -62 45 -66 0 -3 6 -12 13 -19 6 -8 18 -22 24 -32
21 -30 215 -309 218 -312 5 -6 418 -3 423 3 3 2 12 1 21 -4 9 -5 24 -6 34 -2
16 6 11 17 -42 91 -33 47 -74 107 -93 133 -53 76 -107 151 -118 164 -5 7 -10
16 -10 21 0 5 -9 17 -20 27 -11 10 -20 24 -20 31 0 7 -4 14 -8 16 -5 2 -28 32
-52 68 -24 36 -46 67 -49 70 -3 3 -26 34 -50 70 -25 36 -47 67 -50 70 -4 3
-12 15 -19 28 -13 24 -9 42 11 42 15 0 159 84 195 113 33 28 121 116 145 146
53 66 125 232 142 326 11 56 11 321 1 375 -4 25 -9 50 -10 57 -1 7 -5 16 -9
19 -4 4 -7 13 -7 20 0 7 -5 25 -12 41 -6 15 -12 30 -13 33 -2 11 -39 85 -44
90 -4 3 -15 21 -25 40 -48 85 -186 209 -301 268 -27 14 -52 26 -55 27 -3 0
-10 4 -17 8 -38 24 -263 83 -323 85 -8 0 -35 4 -60 7 -52 8 -1164 13 -1184 5z
m1033 -394 c6 -4 11 -2 11 4 0 6 3 9 8 7 4 -3 32 -8 62 -11 223 -24 374 -113
445 -261 31 -65 32 -68 41 -135 14 -100 9 -161 -20 -275 -9 -37 -62 -119 -105
-162 -76 -76 -208 -133 -342 -148 -64 -7 -669 -8 -676 -1 -5 4 -8 914 -4 973
1 6 11 13 24 15 43 6 545 0 556 -6z"/>
<path d="M7873 12732 l-23 -3 0 -1245 0 -1244 28 0 c119 -2 406 1 410 4 2 3 4
368 4 813 -1 800 0 807 19 783 10 -14 22 -35 25 -47 3 -13 9 -23 13 -23 4 0
16 -18 27 -40 10 -22 22 -40 27 -40 4 0 7 -7 7 -15 0 -8 5 -15 10 -15 6 0 10
-4 10 -10 0 -5 35 -67 79 -137 160 -261 244 -399 261 -428 32 -56 212 -350
231 -377 10 -15 19 -29 19 -32 0 -4 75 -130 87 -145 2 -3 49 -5 104 -6 l101
-1 37 55 c21 31 41 63 45 71 4 8 12 24 19 35 33 55 233 387 242 402 8 14 100
168 150 251 6 9 33 54 60 100 28 46 55 91 60 100 6 9 33 55 60 101 28 45 60
99 73 120 12 20 31 53 42 73 11 20 23 39 28 42 5 3 9 -363 10 -812 2 -449 4
-817 5 -819 3 -2 248 -5 369 -4 l66 1 -1 1243 c-2 966 -5 1243 -14 1247 -7 3
-91 5 -187 4 -193 -1 -185 2 -227 -74 -13 -25 -26 -47 -29 -50 -3 -3 -18 -30
-34 -60 -17 -30 -36 -61 -43 -68 -7 -7 -13 -18 -13 -23 0 -5 -15 -32 -33 -61
-18 -29 -39 -65 -46 -80 -8 -16 -18 -28 -23 -28 -4 0 -8 -5 -8 -11 0 -6 -27
-56 -60 -111 -33 -54 -60 -101 -60 -104 0 -2 -11 -21 -24 -42 -13 -20 -35 -55
-48 -78 -35 -62 -137 -237 -151 -258 -7 -11 -27 -44 -44 -72 -18 -29 -33 -58
-33 -64 0 -5 -3 -10 -8 -10 -4 0 -13 -13 -20 -30 -7 -16 -24 -45 -37 -65 -14
-19 -21 -35 -17 -35 4 0 2 -4 -4 -8 -6 -4 -25 -34 -44 -67 -19 -33 -36 -62
-39 -65 -3 -3 -19 -30 -35 -60 -16 -30 -32 -57 -35 -60 -4 -3 -12 -18 -19 -33
-11 -25 -36 -35 -32 -13 1 5 -2 12 -8 15 -7 5 -39 55 -77 123 -5 10 -70 117
-142 238 -73 121 -133 224 -133 229 0 5 -3 11 -8 13 -10 4 -232 375 -232 387
0 5 -3 11 -8 13 -6 2 -155 246 -198 323 -6 11 -43 73 -82 139 -40 65 -72 121
-72 123 0 22 -38 28 -190 28 -91 0 -175 -1 -187 -3z"/>
<path d="M12024 12725 c-11 -8 -31 -47 -39 -75 -1 -3 -18 -40 -38 -83 -20 -43
-37 -83 -37 -88 0 -5 -4 -9 -8 -9 -5 0 -9 -6 -9 -12 0 -7 -12 -39 -26 -71 -15
-32 -27 -62 -27 -67 0 -6 -5 -10 -12 -10 -6 0 -9 -2 -6 -6 3 -3 -7 -32 -23
-65 -16 -32 -29 -61 -29 -64 0 -3 -20 -48 -45 -101 -25 -52 -45 -97 -45 -100
0 -2 -15 -37 -34 -77 -45 -96 -96 -208 -96 -212 0 -2 -17 -41 -39 -87 -21 -45
-55 -121 -76 -168 -21 -47 -54 -119 -73 -160 -19 -41 -36 -79 -38 -85 -1 -5
-34 -79 -73 -164 -39 -85 -71 -160 -71 -168 0 -7 -4 -13 -10 -13 -5 0 -10 -7
-10 -16 0 -9 -7 -28 -15 -42 -16 -30 -95 -202 -95 -208 0 -2 -22 -52 -50 -110
-27 -58 -50 -109 -50 -113 0 -3 -11 -27 -24 -53 -13 -27 -20 -50 -15 -54 5 -3
112 -5 237 -5 l227 0 47 108 c26 59 56 128 67 153 10 25 43 101 72 170 29 69
56 130 61 135 6 6 229 10 629 11 l620 0 15 -35 c9 -20 21 -49 29 -66 25 -59
97 -228 110 -260 5 -11 7 -23 7 -27 -1 -5 2 -8 8 -8 5 0 10 -5 10 -12 0 -6 9
-30 19 -52 11 -23 26 -58 35 -78 15 -38 15 -38 73 -39 64 0 289 0 370 1 l53 0
-11 27 c-13 35 -34 82 -69 158 -16 33 -58 128 -95 210 -37 83 -77 173 -90 200
-12 28 -32 73 -45 100 -12 28 -32 70 -43 95 -12 25 -21 47 -22 50 0 3 -16 37
-34 75 -30 63 -52 112 -56 125 -2 5 -16 37 -68 150 -13 30 -35 78 -47 105 -12
28 -35 76 -51 108 -15 31 -29 59 -29 62 -2 11 -34 85 -61 138 -15 31 -29 60
-29 62 -1 6 -31 77 -63 145 -14 30 -36 80 -50 110 -34 78 -64 142 -108 238
-22 46 -39 85 -39 88 0 2 -17 41 -39 87 -21 45 -46 99 -54 120 -9 20 -20 37
-24 38 -58 7 -439 2 -449 -6z m276 -577 c0 -4 13 -35 29 -70 16 -35 41 -92 56
-128 14 -36 34 -83 44 -105 11 -22 31 -69 46 -105 15 -36 35 -83 44 -105 10
-22 26 -60 36 -85 11 -25 24 -48 30 -52 5 -4 7 -8 3 -8 -3 0 12 -42 34 -92 44
-102 60 -140 63 -148 1 -3 7 -18 13 -33 7 -16 12 -30 12 -32 0 -2 -91 -4 -203
-4 -111 0 -207 0 -212 -1 -6 -1 -14 -1 -20 0 -14 2 -208 2 -220 0 -5 -1 -14
-2 -20 -1 -5 1 -61 2 -123 1 -62 -1 -116 1 -121 5 -5 3 15 59 44 124 29 66 50
122 47 125 -3 3 0 6 6 6 7 0 11 3 10 8 -1 8 10 38 47 118 14 30 25 56 25 58 0
2 8 21 17 42 9 22 16 42 15 47 -1 4 3 7 10 7 6 0 8 3 5 6 -3 4 -1 16 5 28 7
11 11 24 10 29 -1 4 2 7 8 7 6 0 10 5 10 12 0 6 44 114 98 239 l97 228 27 -57
c15 -31 28 -60 28 -64z"/>
<path d="M16450 12655 c-19 -25 -37 -45 -42 -45 -4 0 -8 -6 -8 -14 0 -8 -3
-16 -8 -18 -7 -3 -136 -164 -238 -298 -27 -35 -54 -71 -61 -80 -37 -46 -151
-202 -181 -247 -19 -29 -39 -53 -44 -53 -5 0 -7 -4 -4 -9 4 -5 2 -11 -2 -13
-5 -1 -37 -46 -73 -98 -35 -52 -67 -96 -71 -98 -5 -2 -8 -7 -8 -11 0 -5 -28
-51 -63 -102 -227 -340 -529 -879 -666 -1189 -18 -41 -45 -102 -60 -135 -16
-33 -38 -87 -51 -120 -13 -33 -27 -64 -30 -70 -4 -5 -11 -25 -15 -42 -3 -18
-11 -33 -17 -33 -6 0 -9 -3 -6 -6 4 -3 -7 -42 -24 -87 -38 -103 -126 -374
-132 -407 -3 -14 -12 -47 -21 -75 -9 -27 -18 -66 -21 -85 -3 -19 -8 -38 -11
-42 -4 -8 -8 -25 -19 -82 -2 -16 -6 -32 -8 -35 -2 -3 -7 -24 -10 -46 -4 -22
-13 -73 -21 -112 -8 -40 -15 -76 -14 -80 1 -5 0 -10 -1 -13 -4 -10 -8 -38 -14
-96 -4 -32 -9 -72 -12 -89 -5 -37 -13 -118 -20 -210 -7 -89 -7 -410 0 -495 13
-163 16 -190 25 -229 6 -29 6 -41 -3 -41 -7 0 -7 -3 -1 -8 6 -4 11 -18 13 -32
2 -14 6 -36 8 -50 3 -14 7 -38 10 -54 3 -16 12 -59 21 -95 8 -36 16 -73 17
-81 6 -35 34 -130 67 -230 12 -36 22 -69 24 -75 1 -5 7 -23 14 -40 7 -16 24
-59 38 -95 41 -106 192 -409 213 -430 3 -3 12 -18 20 -34 29 -56 35 -66 42
-66 5 0 8 -6 8 -14 0 -8 3 -16 8 -18 11 -5 52 -66 52 -78 0 -5 3 -10 8 -10 4
0 18 -17 32 -38 14 -20 27 -39 30 -42 3 -3 17 -21 31 -40 15 -19 35 -45 45
-57 11 -11 35 -41 54 -64 52 -64 286 -298 355 -355 33 -27 65 -53 71 -59 6 -5
25 -21 43 -35 19 -14 48 -37 66 -52 18 -16 37 -28 43 -28 6 0 12 -4 14 -9 10
-27 305 -204 483 -290 72 -34 138 -67 147 -72 10 -5 26 -9 36 -9 16 0 131 75
241 157 13 10 36 27 51 38 58 42 106 80 121 97 9 10 21 18 27 18 6 0 12 3 14
8 2 4 50 48 108 97 98 84 311 292 390 381 92 104 210 251 260 324 19 28 40 56
45 63 92 109 318 529 387 717 77 212 131 384 144 460 3 14 7 33 10 42 3 9 7
27 10 40 3 13 8 34 11 48 3 14 7 36 8 50 2 14 4 25 5 25 2 0 6 23 14 80 4 28
9 64 12 80 5 35 10 88 21 200 10 107 10 515 0 640 -15 185 -20 236 -27 255 -2
3 -2 8 -2 12 1 3 -6 48 -14 100 -9 51 -17 107 -19 125 -2 18 -6 36 -9 41 -3 5
-7 24 -10 43 -2 19 -9 52 -15 74 -5 22 -13 54 -16 72 -3 18 -10 44 -15 58 -5
14 -9 29 -9 33 1 4 0 9 -1 12 -1 3 -3 12 -5 20 -3 8 -11 40 -19 70 -24 90 -54
191 -75 252 -10 31 -17 59 -14 62 4 3 1 6 -6 6 -7 0 -11 6 -8 14 3 7 2 17 -2
22 -4 5 -20 45 -36 89 -35 102 -71 199 -94 250 -10 22 -33 78 -52 125 -19 47
-37 87 -41 88 -5 2 -8 9 -8 16 0 7 -14 41 -31 77 -99 206 -133 275 -143 288
-5 7 -11 18 -12 25 -2 10 -110 210 -134 246 -5 8 -17 31 -27 50 -9 19 -29 54
-45 77 -15 23 -28 46 -28 52 0 6 -4 11 -10 11 -5 0 -10 4 -10 10 0 11 -38 73
-149 240 -42 63 -78 119 -80 125 -2 5 -9 15 -15 22 -26 29 -36 42 -36 47 0 3
-23 36 -50 73 -28 37 -58 79 -68 93 -39 55 -148 197 -169 220 -13 14 -23 28
-23 32 0 4 -8 15 -18 25 -10 10 -40 45 -68 78 -54 66 -77 92 -154 180 -86 98
-121 135 -129 135 -4 0 -22 -20 -41 -45z m283 -685 c31 -41 61 -79 65 -85 4
-5 23 -32 42 -60 19 -27 38 -52 41 -55 3 -3 25 -34 49 -70 24 -36 47 -66 52
-68 4 -2 8 -8 8 -13 0 -5 16 -32 35 -59 19 -27 35 -54 35 -59 0 -5 4 -11 9
-13 5 -1 17 -17 27 -35 11 -17 45 -73 77 -123 31 -51 57 -94 57 -96 0 -3 18
-33 39 -67 97 -154 288 -534 286 -567 -8 -108 -34 -216 -71 -297 -8 -17 -14
-38 -14 -47 0 -9 -5 -16 -10 -16 -6 0 -9 -3 -8 -7 6 -21 -179 -330 -242 -406
-6 -7 -24 -30 -41 -52 -110 -143 -194 -238 -330 -374 -124 -123 -176 -171
-186 -171 -4 0 -8 641 -8 1424 0 1277 2 1423 15 1408 9 -9 41 -51 73 -92z
m-381 -1545 c0 -914 -4 -1621 -9 -1626 -5 -5 -24 -4 -43 3 -224 74 -357 154
-515 313 -141 141 -232 283 -335 520 -21 50 -69 195 -64 195 3 0 0 8 -5 18 -6
11 -12 30 -15 43 -3 13 -12 54 -20 90 -19 89 -26 129 -40 229 -19 145 -21 132
36 248 29 59 55 109 58 112 4 3 15 26 26 52 10 27 22 48 27 48 4 0 7 5 7 11 0
6 21 48 46 93 26 44 60 106 77 136 16 30 38 67 48 82 11 14 19 29 19 32 0 3
32 55 70 116 39 61 70 115 70 120 0 5 8 14 18 19 9 6 14 11 10 11 -4 0 31 57
78 127 46 70 84 130 84 135 0 4 3 8 8 8 4 0 20 21 37 48 16 26 33 52 38 57 4
6 69 94 144 198 75 103 138 185 140 183 3 -2 4 -732 5 -1621z m1418 -300 c23
-54 149 -430 156 -470 1 -5 7 -30 15 -55 15 -53 16 -59 22 -85 2 -11 9 -38 15
-60 6 -22 13 -51 16 -65 2 -14 9 -45 15 -70 5 -25 12 -61 16 -80 3 -19 10 -57
15 -85 11 -59 20 -115 26 -170 2 -22 7 -55 9 -73 5 -34 3 -37 -101 -232 -11
-19 -22 -36 -26 -38 -5 -2 -8 -8 -8 -14 0 -13 -193 -339 -228 -385 -13 -18
-20 -33 -16 -33 5 0 4 -4 -1 -8 -12 -8 -95 -129 -95 -137 0 -3 -8 -13 -17 -24
-10 -10 -40 -51 -68 -91 -27 -40 -55 -78 -60 -84 -6 -6 -34 -42 -64 -80 -62
-79 -76 -96 -115 -139 -62 -68 -176 -187 -180 -187 -2 0 -21 -16 -42 -36 -86
-79 -243 -176 -304 -188 -3 -1 -9 -4 -15 -7 -23 -12 -85 -10 -86 3 -1 7 -2
373 -2 812 l-2 799 33 26 c37 29 45 36 122 101 170 145 410 387 502 506 13 16
28 35 35 42 104 108 319 459 387 632 11 28 20 39 23 30 3 -8 13 -33 23 -55z
m-2661 -292 c6 -27 14 -58 16 -70 7 -30 68 -205 94 -271 25 -62 93 -205 102
-212 3 -3 8 -13 12 -22 3 -10 28 -49 54 -89 26 -39 53 -78 58 -86 6 -9 17 -24
25 -33 8 -10 25 -31 38 -48 47 -62 223 -232 241 -232 5 0 11 -4 13 -9 9 -25
287 -184 341 -195 6 -2 26 -8 42 -15 17 -7 68 -22 115 -33 47 -12 87 -23 88
-24 6 -4 4 -1505 -1 -1511 -3 -2 -25 4 -49 15 -23 10 -63 27 -88 36 -120 48
-399 183 -485 235 -33 20 -73 42 -88 50 -15 8 -27 18 -27 23 0 4 -5 8 -11 8
-10 0 -168 109 -195 135 -6 5 -26 21 -45 35 -70 50 -296 289 -359 378 -80 113
-97 143 -154 257 -76 154 -84 186 -78 306 3 57 5 121 6 141 0 21 3 38 6 38 3
0 5 15 6 33 0 17 4 55 8 82 4 28 9 64 12 80 10 82 42 247 54 290 5 17 11 44
13 60 5 27 23 101 63 245 20 70 75 242 83 255 3 6 7 18 8 28 2 9 14 45 28 79
14 34 25 67 25 75 0 31 19 9 29 -34z m2996 -1546 c-2 -7 -6 -57 -9 -112 -6
-97 -12 -147 -21 -172 -2 -7 0 -13 6 -13 6 0 7 -6 2 -12 -8 -14 -9 -21 -17
-83 -2 -22 -5 -40 -6 -40 -1 0 -4 -13 -6 -30 -7 -49 -44 -219 -51 -235 -3 -8
-7 -26 -9 -40 -5 -32 -90 -295 -108 -335 -28 -58 -45 -100 -51 -127 -4 -16
-11 -28 -17 -28 -5 0 -6 -4 -3 -10 3 -5 1 -10 -6 -10 -7 0 -10 -3 -7 -6 16
-16 -261 -499 -311 -544 -3 -3 -22 -27 -41 -55 -19 -27 -39 -55 -45 -61 -5 -6
-23 -29 -40 -50 -16 -21 -46 -57 -65 -79 -19 -22 -48 -55 -65 -74 -34 -39
-229 -235 -296 -297 -24 -22 -96 -83 -159 -135 -63 -51 -118 -98 -122 -104
-10 -14 -10 -52 -11 653 -1 349 2 636 6 639 5 3 25 7 45 9 61 6 103 14 120 23
9 5 19 9 22 8 38 -4 286 131 348 190 7 7 18 13 23 13 5 0 9 6 9 13 0 7 12 20
28 29 53 33 228 214 348 363 27 33 52 62 57 63 4 2 7 10 7 18 0 8 4 14 9 14 5
0 18 15 29 33 12 17 48 69 81 115 34 45 61 87 61 92 0 6 7 13 15 16 8 4 15 11
15 17 0 5 11 25 25 43 14 18 25 37 25 42 0 6 3 12 8 14 11 4 112 165 112 177
0 6 5 11 10 11 6 0 10 7 10 15 0 8 5 15 10 15 6 0 9 3 8 8 0 4 2 15 6 24 9 20
28 15 21 -5z m-3277 -474 c20 -32 41 -65 47 -74 25 -42 80 -116 97 -130 10 -9
18 -19 18 -22 0 -17 263 -285 342 -350 99 -79 178 -137 188 -137 5 0 10 -5 10
-10 0 -6 8 -14 18 -17 9 -4 26 -15 36 -25 11 -10 26 -18 33 -18 7 0 13 -4 13
-10 0 -5 4 -10 10 -10 5 0 35 -16 66 -36 111 -71 495 -257 500 -242 0 2 7 -2
15 -8 8 -6 38 -19 66 -28 29 -10 55 -22 58 -27 5 -7 9 -827 6 -1052 l-1 -37
-57 30 c-54 29 -312 196 -323 210 -3 3 -25 21 -50 40 -110 85 -160 130 -285
255 -129 129 -151 154 -249 279 -67 86 -192 269 -209 306 -4 8 -18 33 -32 55
-25 40 -135 261 -135 270 0 3 -9 27 -21 53 -12 26 -25 56 -30 67 -18 43 -78
233 -94 300 -9 39 -20 81 -25 95 -5 14 -11 41 -14 60 -2 19 -7 45 -10 56 -4
21 -10 53 -21 129 -3 23 -7 51 -10 63 -6 34 2 27 43 -35z"/>
<path d="M7137 9583 c-1 -1 -47 -4 -102 -7 -96 -5 -148 -11 -225 -22 -19 -3
-46 -7 -60 -9 -155 -23 -382 -89 -518 -151 -29 -13 -55 -24 -59 -24 -9 0 -163
-79 -228 -118 -54 -32 -222 -148 -235 -162 -3 -3 -27 -23 -55 -45 -84 -68
-295 -285 -295 -305 0 -5 -4 -10 -8 -12 -12 -4 -112 -144 -112 -156 0 -5 -7
-15 -15 -22 -15 -13 -17 -15 -87 -155 -48 -94 -96 -201 -103 -225 0 -3 -13
-41 -27 -85 -30 -94 -64 -229 -74 -300 -3 -27 -11 -58 -16 -67 -6 -12 -5 -18
2 -18 6 0 9 -4 5 -9 -13 -21 -18 -106 -19 -281 0 -251 13 -383 57 -565 3 -11
8 -33 12 -50 21 -89 85 -257 146 -383 39 -79 74 -149 80 -155 5 -7 33 -48 61
-92 29 -44 54 -82 58 -85 3 -3 21 -25 40 -50 51 -66 77 -95 160 -178 94 -94
316 -272 339 -272 6 0 11 -4 11 -10 0 -5 4 -10 9 -10 5 0 34 -15 66 -34 205
-124 516 -242 735 -280 19 -3 46 -8 60 -11 129 -26 259 -36 470 -36 187 0 247
4 400 27 25 4 52 8 60 9 8 1 26 5 40 8 14 3 68 16 120 28 52 12 102 25 111 30
9 4 27 10 40 13 13 3 49 14 79 26 30 12 69 26 85 32 17 6 33 16 37 22 4 6 8 7
8 3 0 -5 17 0 38 11 20 11 72 37 114 58 180 90 345 207 508 359 41 38 81 78
88 88 8 10 23 28 35 40 12 12 38 42 57 67 19 25 37 47 40 50 12 11 109 158
133 200 81 147 170 343 170 377 0 7 3 13 7 13 4 0 7 6 7 13 0 6 12 52 27 101
14 49 28 103 31 120 2 17 6 41 9 53 2 11 8 43 12 70 3 26 8 57 10 68 9 47 17
198 17 305 -1 184 -17 347 -48 488 -11 48 -13 59 -25 102 -7 25 -13 50 -15 55
-1 6 -5 17 -8 25 -3 8 -12 35 -21 60 -65 200 -223 491 -341 627 -5 6 -32 37
-60 69 -50 58 -155 164 -194 196 -206 172 -408 298 -601 377 -30 12 -64 26
-75 31 -41 20 -105 39 -105 32 0 -4 -4 -2 -8 5 -4 7 -22 14 -39 18 -18 3 -45
10 -60 16 -15 6 -48 14 -73 19 -25 5 -56 12 -70 15 -72 16 -130 26 -175 31
-27 2 -56 7 -63 9 -15 5 -371 23 -375 18z m263 -707 c25 -3 56 -8 70 -11 14
-2 41 -7 60 -10 75 -12 287 -79 304 -96 6 -5 16 -9 23 -9 11 0 189 -99 217
-120 186 -146 300 -268 403 -435 27 -43 113 -224 113 -237 0 -8 4 -18 8 -23
26 -30 76 -238 89 -370 8 -87 9 -246 1 -345 -6 -63 -13 -107 -43 -250 -2 -8
-17 -53 -35 -100 -17 -47 -32 -89 -33 -95 -12 -44 -159 -300 -187 -325 -3 -3
-27 -32 -55 -65 -27 -33 -72 -80 -99 -105 -28 -25 -57 -52 -66 -60 -54 -51
-310 -204 -359 -214 -9 -1 -29 -9 -46 -15 -62 -26 -172 -58 -228 -66 -15 -2
-31 -6 -35 -8 -18 -12 -162 -21 -302 -21 -174 1 -275 9 -338 28 -9 3 -32 8
-49 11 -36 6 -192 54 -208 63 -5 4 -12 7 -15 7 -16 1 -194 94 -245 128 -116
78 -246 196 -311 283 -16 22 -31 41 -35 44 -30 27 -186 302 -193 342 -1 7 -7
22 -13 33 -6 11 -14 36 -18 55 -4 19 -12 41 -17 48 -6 6 -8 12 -5 12 3 0 1 15
-4 33 -5 17 -11 43 -14 57 -3 14 -7 36 -11 50 -12 53 -17 141 -17 305 0 178 3
209 28 345 7 43 33 138 44 165 5 11 21 52 37 90 38 94 75 163 148 270 64 94
216 254 301 317 28 21 55 41 60 45 22 17 95 63 100 63 3 0 22 11 43 24 20 12
39 23 42 23 3 1 30 12 60 26 60 28 234 83 290 91 19 3 46 8 60 11 13 2 52 7
84 10 33 4 62 7 63 9 4 4 288 -2 333 -8z"/>
<path d="M588 9517 c-14 -11 -16 -246 -14 -2137 l1 -2124 1115 0 c1123 1 1375
5 1396 26 3 4 12 4 19 2 19 -8 167 15 295 45 148 35 378 121 435 163 6 5 44
30 85 58 139 92 259 227 334 376 21 42 39 81 40 88 1 6 4 16 7 21 5 9 17 49
24 80 25 114 34 181 36 285 1 63 -9 203 -17 240 -4 22 -10 50 -18 85 -45 208
-189 424 -376 564 -71 54 -266 158 -313 166 -42 9 -36 22 25 61 35 21 76 50
92 64 90 77 125 112 178 180 32 41 63 80 68 86 5 7 7 14 4 17 -2 2 2 10 11 17
8 7 15 16 15 21 0 5 11 32 24 61 28 62 55 146 60 187 2 15 6 32 9 38 7 11 19
174 19 243 -3 268 -101 503 -287 685 -75 73 -89 84 -179 144 -58 39 -215 121
-231 121 -2 0 -16 5 -32 12 -15 6 -32 12 -38 13 -5 2 -40 12 -76 24 -37 12
-79 23 -95 24 -16 1 -31 5 -34 9 -3 3 -25 9 -50 11 -25 3 -56 8 -69 11 -13 3
-49 8 -80 12 -31 3 -65 8 -76 10 -11 2 -85 6 -164 9 -79 3 -146 7 -149 9 -2 3
-15 1 -29 -5 -13 -5 -22 -6 -20 -1 5 6 -68 6 -133 -1 -14 -1 -35 1 -47 5 -12
4 -25 3 -28 -3 -4 -5 -11 -6 -17 -3 -10 7 -86 7 -144 1 -18 -2 -40 0 -50 4
-11 3 -29 2 -42 -2 -13 -5 -21 -6 -19 -1 5 6 -68 6 -133 -1 -14 -1 -35 1 -47
5 -12 4 -25 3 -28 -3 -4 -5 -11 -6 -17 -3 -10 7 -86 7 -144 1 -18 -2 -40 0
-50 4 -11 3 -29 2 -42 -2 -13 -5 -21 -6 -19 -1 5 6 -68 6 -133 -1 -14 -1 -35
1 -47 5 -12 4 -25 3 -28 -3 -4 -5 -11 -7 -16 -3 -13 8 -698 8 -706 0 -3 -3
-13 -1 -23 4 -11 6 -22 5 -32 -3z m2132 -630 c14 -3 42 -8 64 -12 65 -11 122
-25 156 -38 8 -3 36 -13 63 -23 26 -9 47 -21 47 -25 0 -5 7 -9 16 -9 22 0 102
-60 152 -114 60 -65 108 -168 118 -254 25 -203 -20 -356 -136 -472 -105 -105
-247 -168 -437 -195 -18 -3 -50 -8 -70 -11 -48 -8 -1323 -13 -1324 -5 -4 18
-4 1148 -1 1159 4 11 123 13 666 9 363 -3 672 -7 686 -10z m160 -1790 c14 -3
43 -8 65 -11 128 -15 334 -87 383 -133 7 -7 17 -13 20 -13 15 0 101 -87 130
-131 110 -165 114 -446 8 -622 -35 -58 -98 -127 -116 -127 -6 0 -10 -4 -10 -9
0 -5 -31 -25 -70 -45 -72 -38 -180 -79 -180 -69 0 3 -6 0 -14 -6 -8 -6 -18
-11 -22 -10 -5 1 -11 1 -14 -1 -3 -1 -16 -3 -30 -6 -14 -2 -47 -9 -75 -14 -27
-5 -90 -12 -140 -15 -49 -3 -91 -8 -93 -10 -2 -2 -15 0 -29 6 -13 5 -22 6 -20
1 3 -4 -29 -6 -71 -4 -77 3 -119 2 -157 -2 -11 -1 -30 1 -43 6 -13 4 -21 5
-19 0 6 -9 -115 -8 -130 1 -6 4 -14 3 -18 -3 -4 -7 -12 -7 -24 0 -10 5 -21 7
-23 4 -9 -8 -111 -10 -146 -3 -17 4 -34 4 -36 0 -2 -3 -30 -5 -63 -3 -57 3
-97 2 -138 -2 -11 -1 -30 1 -43 6 -13 4 -21 5 -19 0 6 -9 -115 -8 -130 1 -6 4
-14 3 -18 -3 -4 -7 -12 -7 -24 0 -10 5 -21 7 -24 4 -10 -10 -177 -9 -178 1 -3
24 -5 1211 -2 1217 4 8 1478 3 1513 -5z"/>
<path d="M9763 9523 c-15 -5 35 -82 150 -234 32 -41 57 -79 57 -84 0 -4 6 -13
13 -20 20 -23 30 -36 90 -120 31 -44 60 -84 65 -90 4 -5 23 -32 42 -60 19 -27
43 -58 53 -69 9 -11 17 -23 17 -28 0 -4 8 -16 18 -26 26 -28 62 -80 62 -91 0
-5 3 -11 8 -13 4 -1 25 -28 47 -58 22 -30 43 -56 47 -58 5 -2 8 -8 8 -13 0 -8
41 -69 78 -114 4 -5 23 -32 42 -60 19 -27 37 -51 42 -53 4 -2 8 -10 8 -17 0
-7 3 -15 8 -17 4 -1 54 -68 111 -148 57 -80 107 -147 111 -150 3 -3 9 -12 12
-20 4 -8 42 -64 87 -125 44 -60 90 -125 103 -143 13 -18 29 -39 36 -47 6 -7
12 -18 12 -23 0 -6 4 -12 8 -14 5 -1 25 -25 44 -53 19 -27 49 -71 67 -96 l33
-46 -25 -36 c-13 -19 -32 -43 -41 -52 -9 -9 -16 -19 -16 -23 0 -4 -11 -20 -25
-37 -28 -34 -36 -45 -50 -67 -13 -21 -126 -179 -142 -198 -7 -8 -58 -78 -113
-155 -55 -77 -109 -151 -120 -165 -11 -14 -52 -70 -91 -125 -40 -55 -75 -102
-79 -105 -4 -3 -9 -10 -11 -15 -2 -6 -51 -75 -109 -154 -58 -78 -109 -150
-115 -159 -5 -9 -12 -19 -15 -22 -3 -3 -17 -21 -30 -40 -14 -19 -28 -39 -33
-45 -25 -31 -187 -256 -187 -260 0 -3 -9 -15 -19 -27 -11 -13 -85 -113 -164
-223 -80 -110 -155 -211 -166 -224 -24 -28 -27 -41 -8 -42 6 -1 207 -2 446 -3
l434 -1 16 25 c9 14 21 31 28 38 7 8 18 23 24 35 7 11 16 26 20 31 24 29 99
137 99 141 0 3 11 18 25 33 14 15 25 32 25 39 0 6 4 13 8 15 9 3 36 41 128
175 26 37 49 70 53 73 4 3 23 30 43 60 39 59 341 488 355 505 5 6 24 34 43 63
18 28 37 52 42 52 4 0 8 4 8 9 0 10 14 30 110 166 28 39 64 91 82 117 26 38
34 44 45 33 7 -8 13 -18 13 -23 0 -6 3 -12 8 -14 7 -3 127 -169 187 -258 17
-24 36 -51 44 -60 7 -8 42 -55 77 -105 35 -49 68 -95 74 -102 5 -7 10 -16 10
-22 0 -5 3 -11 8 -13 8 -3 107 -140 154 -213 7 -10 19 -25 26 -33 6 -7 26 -35
44 -60 18 -26 40 -56 50 -66 10 -11 18 -26 18 -33 0 -7 3 -13 8 -13 4 0 23
-25 42 -55 19 -30 38 -54 43 -55 4 0 7 -5 7 -10 0 -11 10 -24 43 -61 9 -10 17
-21 17 -24 0 -3 26 -41 58 -85 31 -43 94 -130 138 -192 l82 -113 445 0 c245 1
449 3 452 7 4 3 -20 42 -52 86 -32 44 -65 90 -73 102 -8 12 -22 31 -32 43 -76
99 -118 160 -118 168 0 5 -4 9 -10 9 -5 0 -10 7 -10 15 0 8 -4 15 -9 15 -5 0
-20 17 -32 38 -13 20 -26 39 -29 42 -3 3 -22 27 -41 55 -18 27 -40 56 -46 65
-7 8 -60 80 -117 160 -58 80 -114 156 -125 170 -12 14 -21 31 -21 38 0 6 -4
12 -9 12 -5 0 -25 24 -45 53 -39 58 -219 305 -235 324 -6 7 -11 16 -11 22 0 5
-3 11 -8 13 -4 2 -69 89 -145 193 -76 105 -143 197 -150 205 -7 9 -28 38 -46
65 -19 28 -38 52 -41 55 -3 3 -23 31 -44 63 -22 31 -43 57 -48 57 -4 0 -8 5
-8 10 0 6 -18 35 -41 65 -27 36 -38 58 -32 68 8 13 179 251 195 272 43 55 138
189 138 195 0 5 4 10 8 12 4 2 23 25 42 53 19 27 43 58 53 69 9 11 17 23 17
27 0 4 6 14 13 21 7 7 30 38 52 68 22 30 43 57 47 58 5 2 8 8 8 13 0 6 5 15
10 22 11 13 40 52 155 211 141 195 160 221 167 224 5 2 8 10 8 17 0 7 4 15 8
17 4 2 48 59 97 128 49 69 93 130 97 135 13 16 96 130 222 305 65 91 122 167
125 170 15 13 9 30 -12 31 -33 1 -78 0 -113 -4 -18 -2 -40 0 -50 4 -11 3 -29
2 -42 -2 -13 -5 -21 -6 -19 -1 5 6 -68 6 -133 -1 -14 -1 -35 1 -47 5 -12 4
-25 3 -28 -3 -4 -5 -11 -6 -17 -3 -10 6 -80 7 -143 1 -16 -1 -40 1 -52 5 -12
4 -25 3 -28 -3 -4 -5 -11 -6 -17 -3 -9 6 -54 8 -110 5 -17 -1 -68 -42 -68 -55
0 -4 -21 -36 -47 -71 -27 -35 -97 -134 -158 -220 -60 -86 -122 -172 -137 -190
-16 -18 -28 -36 -28 -40 0 -4 -10 -20 -22 -35 -13 -15 -30 -37 -38 -50 -8 -12
-40 -56 -70 -99 -71 -98 -112 -158 -125 -179 -5 -9 -17 -24 -25 -32 -8 -8 -21
-24 -28 -35 -34 -53 -53 -82 -67 -100 -45 -56 -135 -186 -135 -194 0 -5 -4
-11 -8 -13 -4 -1 -36 -43 -71 -93 -36 -49 -67 -94 -71 -98 -7 -8 -23 12 -214
278 -63 88 -119 165 -123 170 -5 6 -24 32 -43 60 -34 49 -90 125 -113 155 -7
9 -28 38 -46 65 -19 28 -37 52 -40 55 -4 3 -10 13 -16 22 -12 20 -157 221
-165 228 -3 3 -9 12 -15 21 -5 10 -37 54 -70 99 -33 45 -64 89 -70 98 -11 18
-25 36 -40 55 -8 9 -132 182 -140 194 -2 4 -45 4 -80 0 -16 -1 -40 1 -52 5
-12 4 -25 3 -28 -3 -4 -5 -11 -6 -17 -3 -10 7 -86 7 -144 1 -18 -2 -40 0 -50
4 -11 3 -29 2 -42 -2 -13 -5 -21 -6 -19 -1 5 6 -68 6 -133 -1 -14 -1 -35 1
-47 5 -12 4 -25 3 -28 -3 -4 -5 -11 -6 -17 -3 -10 6 -80 7 -143 1 -16 -1 -39
0 -50 4 -11 3 -26 4 -32 2z"/>
</g>
</svg>
