<svg width="34" height="35" viewBox="0 0 34 35" fill="none" xmlns="http://www.w3.org/2000/svg">
<path fill-rule="evenodd" clip-rule="evenodd" d="M30.3988 0.935248C24.4151 4.44844 7.79917 14.2024 1.83809 17.7014C1.0352 18.173 0.551809 19.1007 0.592191 20.0918C0.63376 21.0815 1.19197 21.9601 2.0293 22.3503L10.0796 26.109L10.0404 31.6017C10.0321 32.6702 10.6307 33.6354 11.5464 34.0257C12.4609 34.4172 13.5037 34.1549 14.1676 33.3667L17.568 29.325L26.2347 32.4454C26.8856 32.6806 27.5994 32.5966 28.1897 32.2154C28.7811 31.8356 29.1921 31.196 29.3168 30.4608L33.8621 3.67964C34.0284 2.70152 33.6638 1.70663 32.925 1.12002C32.1851 0.534708 31.2029 0.463636 30.3988 0.935248ZM31.1589 5.37874L26.9806 29.9917L17.5847 26.609C17.1405 26.4488 16.6511 26.5884 16.3352 26.9631L12.4158 31.621L12.4573 25.7976L31.1589 5.37874ZM2.96522 19.9755L11.0012 23.7264L27.774 5.41233L2.96522 19.9755Z" fill="#206B3D"/>
</svg>
