<svg width="33" height="34" viewBox="0 0 33 34" fill="none" xmlns="http://www.w3.org/2000/svg">
<path d="M13.3371 0.520077C11.223 0.617355 8.28397 0.88974 7.37518 1.07133C4.33944 1.68096 1.89022 4.11298 1.24569 7.14813C1.11034 7.80316 0.974984 9.81362 0.89764 12.4986C0.78807 16.1109 0.987875 21.2863 1.27791 22.5314C1.79998 24.7365 3.23084 26.6237 5.17088 27.6549C6.16346 28.1867 6.89823 28.4072 8.1744 28.5628C8.61912 28.6212 9.08319 28.6796 9.19276 28.699L9.40545 28.7315L9.41834 31.1829L9.43161 32.8608C9.43433 33.205 9.80579 33.4196 10.1053 33.25L13.4596 31.3516L17.4879 29.0687L18.8092 29.0298C21.0006 28.9585 23.9654 28.7185 25.3705 28.498C26.9947 28.2386 28.3933 27.5187 29.5857 26.3254C30.2883 25.625 30.675 25.0997 31.0617 24.3279C31.6353 23.18 31.848 22.2461 31.964 20.3913C32.2154 16.3185 32.1896 11.636 31.8931 8.23119C31.7256 6.31152 31.0295 4.7226 29.7662 3.40607C28.6769 2.25816 27.4652 1.53828 25.9699 1.15564C25.0869 0.922169 22.1543 0.63681 19.4924 0.513592C17.8939 0.442249 14.9355 0.442253 13.3371 0.520077ZM20.6847 2.00523C23.4111 2.1933 25.2222 2.40732 25.9377 2.63431C28.2193 3.35419 29.908 5.20252 30.3527 7.48537C30.501 8.23119 30.5912 9.57366 30.6879 12.4402C30.8039 16.059 30.6041 21.1695 30.2883 22.4017C29.7404 24.5743 27.9164 26.4162 25.7637 26.9674C24.8226 27.2139 21.2262 27.5317 18.6609 27.603L17.114 27.6419L13.9881 29.4189L10.8556 31.1894L10.8363 29.3152L10.8234 27.4344L10.5463 27.402C10.398 27.3825 9.70838 27.3047 9.01873 27.2269C8.32909 27.149 7.55565 27.0388 7.29784 26.9674C5.04198 26.3902 3.28241 24.6133 2.69588 22.3174C2.16737 20.2421 2.17381 9.40504 2.70233 7.20002C3.28885 4.768 5.4158 2.82887 7.95526 2.42678C8.76737 2.29707 11.0103 2.08954 12.467 2.00523C13.1437 1.96631 13.8656 1.9274 14.0783 1.91443C14.826 1.86904 19.6986 1.93389 20.6847 2.00523Z" fill="#206B3D" stroke="#206B3D" stroke-width="0.9"/>
<path d="M16.4961 5.42968V6.13659L17.2889 6.20793C20.1828 6.48031 22.3355 7.87467 23.4828 10.2224C23.9727 11.2276 24.2111 12.142 24.282 13.3224L24.3271 14.0358L24.9975 14.0552C25.3648 14.0617 25.6871 14.0487 25.7129 14.0228C25.7902 13.9385 25.6678 12.5312 25.526 11.8243C25.2682 10.5466 24.8621 9.55438 24.1982 8.56212C23.6439 7.71902 23.1219 7.16128 22.3742 6.59056C21.0207 5.56587 19.4867 4.98868 17.5982 4.8006C17.2309 4.76169 16.8377 4.72926 16.7152 4.72926H16.4961V5.42968Z" fill="#206B3D" stroke="#206B3D" stroke-width="0.9"/>
<path d="M9.3589 7.02506C8.8755 7.18071 8.54034 7.43364 7.9087 8.09515C7.23194 8.79557 6.85811 9.43762 6.66475 10.2094C6.5294 10.7347 6.53585 12.6803 6.6712 13.6077C7.25128 17.6287 9.73272 21.0464 13.3679 22.8234C15.121 23.686 16.7839 24.0557 18.8593 24.0557C19.9357 24.0557 20.4706 23.9519 21.1667 23.6082C22.0046 23.1996 23.0874 22.1684 23.4161 21.4615C23.5257 21.2216 23.5515 21.0464 23.5515 20.4887C23.5515 19.5029 23.4483 19.3149 22.1722 18.0048C20.9669 16.7596 20.5866 16.4613 20.013 16.3056C19.1493 16.0722 18.3243 16.2797 17.6218 16.9217C17.4155 17.1098 17.0933 17.3368 16.8935 17.4211C16.5905 17.5638 16.4745 17.5833 16.0491 17.5573C15.3401 17.5184 15.0566 17.3368 14.0511 16.3056C13.3614 15.5922 13.2003 15.3912 13.0843 15.0799C12.8071 14.3341 12.9425 13.7374 13.5419 13.0565C13.7546 12.81 14.0189 12.4209 14.1284 12.1874C14.3153 11.8113 14.3347 11.7075 14.3347 11.1822C14.3347 10.6569 14.3153 10.5531 14.122 10.1445C13.9351 9.75541 13.7546 9.54139 12.7362 8.5167C11.3247 7.10289 11.1314 6.97967 10.2161 6.95372C9.84874 6.94075 9.52647 6.96669 9.3589 7.02506ZM10.3708 8.36105C10.6995 8.45185 12.8523 10.6374 12.9167 10.9422C12.9941 11.3314 12.9038 11.5713 12.4591 12.0901C12.2335 12.3625 11.9692 12.7322 11.8855 12.9073C11.4021 13.8607 11.4149 14.9437 11.9241 15.9684C12.0788 16.2797 12.3495 16.5975 13.1681 17.4146C14.2896 18.5496 14.6183 18.7766 15.411 18.9646C16.4552 19.2111 17.5573 18.9128 18.3694 18.1669C18.9302 17.6546 19.2589 17.5379 19.6972 17.7C19.9034 17.7778 21.9337 19.7818 22.0755 20.0477C22.1915 20.2682 22.1915 20.7027 22.0755 20.9297C21.9466 21.1826 21.0249 22.0582 20.6833 22.2592C20.2192 22.5316 19.7165 22.6289 18.8142 22.6289C17.5058 22.6289 16.4358 22.4603 15.2757 22.0711C11.6534 20.8584 8.99796 17.8492 8.17296 14.0163C8.07628 13.5494 8.03116 13.0565 8.00538 12.1096C7.97315 10.9422 7.9796 10.7996 8.1085 10.3845C8.37921 9.48951 9.48136 8.32214 10.0808 8.2962C10.1194 8.2962 10.2483 8.32862 10.3708 8.36105Z" fill="#206B3D" stroke="#206B3D" stroke-width="0.9"/>
<path d="M16.4961 8.29599C16.4961 8.68511 16.5154 9.00938 16.5477 9.00938C16.8506 9.01587 17.8883 9.16503 18.1977 9.24286C20.1055 9.72926 21.2914 11.2728 21.4525 13.4519L21.4912 14.0356L22.1873 14.055L22.877 14.0745V13.627C22.877 13.3805 22.8318 12.9201 22.7803 12.6023C22.284 9.73575 20.3311 7.96524 17.334 7.64745C16.9988 7.61503 16.6701 7.5826 16.6121 7.5826C16.509 7.5826 16.4961 7.66042 16.4961 8.29599Z" fill="#206B3D" stroke="#206B3D" stroke-width="0.9"/>
<path d="M16.5207 10.5337C16.5013 10.5726 16.5013 10.8969 16.5078 11.2536L16.5271 11.8956L16.9847 11.9345C17.5455 11.9864 17.9451 12.1615 18.2093 12.4598C18.4542 12.7452 18.5574 13.0241 18.6089 13.6013L18.6541 14.0358L19.3501 14.0553L20.0398 14.0747V13.731C20.0333 12.8749 19.6724 11.8956 19.1761 11.3898C18.8667 11.0785 18.2867 10.7477 17.8484 10.631C17.4037 10.5077 16.5529 10.4494 16.5207 10.5337Z" fill="#206B3D" stroke="#206B3D" stroke-width="0.9"/>
</svg>
