<svg width="35" height="33" viewBox="0 0 35 33" fill="none" xmlns="http://www.w3.org/2000/svg">
<path d="M27.1693 18.8626L23.9114 16.6166C23.5023 16.3337 22.9982 16.2169 22.494 16.2932C21.9899 16.3651 21.5476 16.6211 21.2527 17.0074L20.2444 18.3101C20.1921 18.3775 20.2111 18.3146 20.1873 18.3999C20.1826 18.4089 20.1255 18.4808 19.9448 18.5077C19.6404 18.5526 18.7272 18.4987 16.7534 17.0074L16.5632 16.8772C14.4848 15.57 14.1519 14.766 14.1043 14.4785C14.0805 14.3303 14.1186 14.2584 14.1138 14.2539C14.1804 14.2135 14.1614 14.2135 14.2137 14.1506L15.222 12.848C15.5216 12.4617 15.6453 11.9855 15.5644 11.5094C15.4836 11.0332 15.2172 10.6155 14.8082 10.3325L11.4932 8.04615C10.6466 7.46221 9.45283 7.63739 8.83454 8.43694L7.81673 9.75755C6.91783 10.9209 6.67527 12.5111 7.18417 13.9125C7.96893 16.0731 9.97124 18.3685 13.1388 20.7402C13.1816 20.7896 13.2292 20.83 13.2862 20.8704C13.3671 20.9243 13.4479 20.9782 13.5288 21.0277C13.6049 21.0861 13.6858 21.14 13.7619 21.1983C13.8142 21.2388 13.876 21.2702 13.9378 21.2927C17.2956 23.4173 20.2206 24.5178 22.6415 24.5672C22.6748 24.5672 22.7033 24.5672 22.7366 24.5672C24.2395 24.5672 25.6711 23.871 26.5795 22.6896L27.5973 21.369C27.897 20.9827 28.0206 20.5066 27.9398 20.0305C27.8589 19.5543 27.5783 19.1456 27.1693 18.8626ZM26.4321 20.5785L25.4143 21.8991C24.7579 22.748 23.7259 23.2377 22.6558 23.2197C21.1195 23.1882 18.4419 22.5908 14.3564 19.9406C10.4421 17.0748 9.02002 14.8468 8.52063 13.4768C8.15917 12.4886 8.32563 11.3656 8.95819 10.5526L9.98076 9.232C10.0569 9.13318 10.1662 9.0703 10.2899 9.05233C10.4136 9.03436 10.542 9.06131 10.6466 9.13318L13.9616 11.4195C14.0662 11.4914 14.1328 11.5947 14.1519 11.7115C14.1709 11.8283 14.1423 11.9496 14.0662 12.0484L13.0912 13.3106C12.863 13.5442 12.6347 13.9709 12.6727 14.51C12.7488 15.5925 13.7619 16.7289 15.7499 17.9777L15.8926 18.072C17.776 19.4959 19.2361 20.0619 20.349 19.7969C20.9055 19.6666 21.267 19.3342 21.4334 19.0557L22.4084 17.7935C22.5606 17.5914 22.8603 17.5509 23.0743 17.6947L26.3322 19.9406C26.4369 20.0125 26.5034 20.1158 26.5225 20.2326C26.5367 20.3629 26.5082 20.4841 26.4321 20.5785Z" fill="#206B3D" stroke="#206B3D" stroke-width="0.902778"/>
<path d="M17.5018 0.468262C8.38436 0.468262 0.964844 7.47558 0.964844 16.0865C0.964844 19.7788 2.34411 23.3364 4.86009 26.1483L1.92558 31.552C1.79716 31.7901 1.83045 32.082 2.01119 32.2887C2.14911 32.4459 2.35362 32.5312 2.55814 32.5312C2.62472 32.5312 2.69606 32.5222 2.76265 32.5043L10.634 30.2943C12.798 31.2286 15.1047 31.7002 17.5018 31.7002C26.6192 31.7002 34.0387 24.6929 34.0387 16.082C34.0387 7.47109 26.6192 0.468262 17.5018 0.468262ZM17.5018 30.3527C15.2284 30.3527 13.0406 29.8855 10.9955 28.9647C10.8337 28.8928 10.653 28.8793 10.4866 28.9288L3.95643 30.7614L6.34875 26.3549C6.48192 26.1079 6.44387 25.8069 6.24411 25.5958C3.76143 22.977 2.39167 19.5946 2.39167 16.082C2.39167 8.21225 9.16911 1.81133 17.5018 1.81133C25.8345 1.81133 32.6119 8.21225 32.6119 16.082C32.6119 23.9518 25.8345 30.3527 17.5018 30.3527Z" fill="#206B3D" stroke="#206B3D" stroke-width="0.902778"/>
</svg>
