<svg width="24" height="20" viewBox="0 0 24 20" fill="none" xmlns="http://www.w3.org/2000/svg">
<path d="M1.02416 10.6633L9.46168 19.1008C9.6376 19.2767 9.87619 19.3756 10.125 19.3756C10.3737 19.3756 10.6123 19.2767 10.7882 19.1008C10.9642 18.9249 11.063 18.6863 11.063 18.4375C11.063 18.1888 10.9642 17.9502 10.7882 17.7743L3.95034 10.9375H22.3125C22.5611 10.9375 22.7996 10.8388 22.9754 10.6629C23.1512 10.4871 23.25 10.2487 23.25 10C23.25 9.75139 23.1512 9.51293 22.9754 9.33712C22.7996 9.1613 22.5611 9.06253 22.3125 9.06253H3.95034L10.7882 2.22581C10.9642 2.0499 11.063 1.81131 11.063 1.56253C11.063 1.31375 10.9642 1.07516 10.7882 0.899252C10.6123 0.723339 10.3737 0.624512 10.125 0.624512C9.87619 0.624512 9.6376 0.723339 9.46168 0.899252L1.02416 9.33675C0.936993 9.42382 0.867844 9.52722 0.820665 9.64103C0.773485 9.75484 0.749203 9.87683 0.749203 10C0.749203 10.1232 0.773485 10.2452 0.820665 10.359C0.867844 10.4728 0.936993 10.5762 1.02416 10.6633Z" fill="white"/>
</svg>
