<svg width="115" height="55" viewBox="0 0 115 55" fill="none" xmlns="http://www.w3.org/2000/svg">
<path d="M3.57848 52.145V25.4967H16.0651C19.2629 25.4967 21.6993 26.1312 23.3743 27.4002C25.0494 28.6438 25.8869 30.3188 25.8869 32.4253C25.8869 33.8465 25.557 35.0647 24.8971 36.0799C24.2372 37.0697 23.349 37.8438 22.2323 38.4021C21.141 38.9351 19.9481 39.2016 18.6538 39.2016L19.339 37.8311C20.8364 37.8311 22.1815 38.1103 23.3743 38.6686C24.5672 39.2016 25.5062 39.9883 26.1915 41.0289C26.9021 42.0694 27.2574 43.3638 27.2574 44.9119C27.2574 47.1961 26.3818 48.9726 24.6306 50.2416C22.8795 51.5105 20.2781 52.145 16.8265 52.145H3.57848ZM8.52745 48.262H16.5219C18.3746 48.262 19.7959 47.9574 20.7857 47.3483C21.7755 46.7392 22.2703 45.7621 22.2703 44.417C22.2703 43.0973 21.7755 42.1329 20.7857 41.5238C19.7959 40.8893 18.3746 40.5721 16.5219 40.5721H8.14676V36.7271H15.5321C17.2579 36.7271 18.5777 36.4225 19.4913 35.8134C20.4303 35.2043 20.8999 34.2907 20.8999 33.0725C20.8999 31.8289 20.4303 30.9025 19.4913 30.2934C18.5777 29.6843 17.2579 29.3798 15.5321 29.3798H8.52745V48.262Z" fill="#222222"/>
<path d="M45.0258 52.5257C42.9447 52.5257 41.0285 52.1831 39.2774 51.4978C37.5262 50.8126 36.0034 49.8609 34.7091 48.6427C33.4147 47.3991 32.4123 45.9525 31.7016 44.3028C30.991 42.6278 30.6357 40.8005 30.6357 38.8209C30.6357 36.8413 30.991 35.0267 31.7016 33.377C32.4123 31.702 33.4147 30.2554 34.7091 29.0372C36.0034 27.7936 37.5262 26.8292 39.2774 26.1439C41.0285 25.4587 42.932 25.116 44.9877 25.116C47.0688 25.116 48.9723 25.4587 50.6981 26.1439C52.4492 26.8292 53.972 27.7936 55.2663 29.0372C56.5607 30.2554 57.5632 31.702 58.2738 33.377C58.9844 35.0267 59.3397 36.8413 59.3397 38.8209C59.3397 40.8005 58.9844 42.6278 58.2738 44.3028C57.5632 45.9778 56.5607 47.4245 55.2663 48.6427C53.972 49.8609 52.4492 50.8126 50.6981 51.4978C48.9723 52.1831 47.0815 52.5257 45.0258 52.5257ZM44.9877 48.1858C46.3328 48.1858 47.5764 47.9574 48.7185 47.5006C49.8605 47.0438 50.8503 46.3966 51.6878 45.5591C52.5254 44.6962 53.1725 43.7064 53.6294 42.5897C54.1116 41.4476 54.3527 40.1914 54.3527 38.8209C54.3527 37.4504 54.1116 36.2068 53.6294 35.0901C53.1725 33.9481 52.5254 32.9583 51.6878 32.1207C50.8503 31.2578 49.8605 30.598 48.7185 30.1412C47.5764 29.6843 46.3328 29.4559 44.9877 29.4559C43.6426 29.4559 42.399 29.6843 41.2569 30.1412C40.1403 30.598 39.1505 31.2578 38.2876 32.1207C37.4501 32.9583 36.7902 33.9481 36.308 35.0901C35.8512 36.2068 35.6227 37.4504 35.6227 38.8209C35.6227 40.166 35.8512 41.4096 36.308 42.5516C36.7902 43.6937 37.4501 44.6962 38.2876 45.5591C39.1251 46.3966 40.1149 47.0438 41.2569 47.5006C42.399 47.9574 43.6426 48.1858 44.9877 48.1858ZM60.383 52.145L71.6134 36.689V40.4198L60.916 25.4967H66.5121L74.4686 36.5367L72.1844 36.5748L80.0647 25.4967H85.4324L74.8112 40.1533V36.5748L86.1177 52.145H80.4073L72.0321 40.4198H74.2782L66.0172 52.145H60.383Z" fill="#206B3D"/>
<path d="M6.32873 12.5832H14.0998V15.0325H6.32873V12.5832ZM6.57367 21H3.679V5.41335H15.0573V7.84041H6.57367V21ZM20.5286 11.8929H28.2774V14.2755H20.5286V11.8929ZM20.7513 18.5729H29.5466V21H17.8566V5.41335H29.2348V7.84041H20.7513V18.5729ZM32.7735 21V5.41335H39.1863C40.5668 5.41335 41.747 5.63602 42.7267 6.08135C43.7213 6.52668 44.4858 7.16499 45.0202 7.99628C45.5546 8.82757 45.8218 9.81472 45.8218 10.9577C45.8218 12.1008 45.5546 13.0879 45.0202 13.9192C44.4858 14.7357 43.7213 15.3665 42.7267 15.8119C41.747 16.2424 40.5668 16.4576 39.1863 16.4576H34.3767L35.6682 15.1439V21H32.7735ZM42.9716 21L39.0304 15.3443H42.1255L46.089 21H42.9716ZM35.6682 15.4556L34.3767 14.0751H39.0527C40.3293 14.0751 41.2868 13.8005 41.9251 13.2512C42.5782 12.702 42.9048 11.9375 42.9048 10.9577C42.9048 9.96317 42.5782 9.19868 41.9251 8.66428C41.2868 8.12988 40.3293 7.86268 39.0527 7.86268H34.3767L35.6682 6.43762V15.4556ZM49.0603 21V5.41335H51.4429L58.2565 16.7916H57.0095L63.7118 5.41335H66.0943L66.1166 21H63.3778L63.3555 9.71081H63.9344L58.2342 19.2187H56.9427L51.1534 9.71081H51.8214V21H49.0603ZM68.1223 21L75.1363 5.41335H77.9864L85.0227 21H81.9944L75.9602 6.94975H77.118L71.106 21H68.1223ZM71.351 17.3928L72.1303 15.1216H80.5471L81.3264 17.3928H71.351Z" fill="#206B3D"/>
<path fill-rule="evenodd" clip-rule="evenodd" d="M103.808 6.39369L103.077 5.57959L102.39 6.42926C91.6283 19.7502 89.2497 30.198 90.8792 37.9153C92.5062 45.6208 98.0826 50.3763 102.738 52.4009L103.215 52.6086L103.643 52.3164C108.745 48.8333 111.87 44.7868 113.518 40.5046C114.865 37.0072 115.212 33.3913 114.886 29.8528C114.857 29.9099 114.915 29.7962 114.886 29.8528L114.865 29.629C114.793 28.9176 114.695 28.2094 114.572 27.5062C113.087 18.9896 108.016 11.0819 103.808 6.39369ZM113.003 29.5098C112.94 28.9399 112.858 28.371 112.759 27.8039C112.369 25.5667 111.715 23.366 110.887 21.2569C110.346 22.7515 109.432 24.1744 108.441 25.4137C106.997 27.2215 105.296 28.7569 104.036 29.7221V39.8688C104.408 39.9085 105.125 39.7813 106.303 38.8424C107.961 37.5206 110.231 34.7682 113.003 29.5098ZM109.724 18.5775C108.075 15.1133 106.028 11.9885 104.036 9.48114V27.3846C104.986 26.5525 106.048 25.4962 106.988 24.3205C108.482 22.4499 109.724 20.4169 109.724 18.5775ZM102.197 9.6248C99.2815 13.4684 97.1154 17.0256 95.5625 20.3034C96.1684 27.3572 99.9881 29.5878 102.197 30.068V9.6248ZM94.3352 23.1563C92.957 26.7309 92.3345 29.9397 92.2616 32.7935C94.051 38.0015 99.2665 40.2551 102.197 41.3898V31.886C99.5002 31.4689 95.6911 29.2034 94.3352 23.1563ZM92.3839 35.7118C92.4555 36.3479 92.5555 36.963 92.681 37.5572C94.0166 43.883 98.2727 48.0343 102.197 50.144V43.2992C99.5926 42.3799 95.0287 40.2718 92.3839 35.7118ZM104.036 49.8081C108 46.7708 110.447 43.3838 111.796 39.8803C112.66 37.6355 113.081 35.3238 113.151 33.0005C110.964 36.7104 109.06 38.9537 107.471 40.221C106.23 41.2103 105.036 41.6922 104.036 41.6674V49.8081Z" fill="#222222"/>
</svg>
