<svg width="24" height="20" viewBox="0 0 24 20" fill="none" xmlns="http://www.w3.org/2000/svg">
<path d="M22.9758 10.6633L14.5383 19.1008C14.3624 19.2767 14.1238 19.3755 13.875 19.3755C13.6263 19.3755 13.3877 19.2767 13.2118 19.1008C13.0358 18.9248 12.937 18.6862 12.937 18.4375C12.937 18.1887 13.0358 17.9501 13.2118 17.7742L20.0497 10.9375H1.6875C1.43886 10.9375 1.2004 10.8387 1.02459 10.6629C0.848772 10.4871 0.75 10.2486 0.75 9.99997C0.75 9.75133 0.848772 9.51287 1.02459 9.33706C1.2004 9.16124 1.43886 9.06247 1.6875 9.06247H20.0497L13.2118 2.22575C13.0358 2.04984 12.937 1.81125 12.937 1.56247C12.937 1.31369 13.0358 1.0751 13.2118 0.899191C13.3877 0.723278 13.6263 0.624451 13.875 0.624451C14.1238 0.624451 14.3624 0.723278 14.5383 0.899191L22.9758 9.33669C23.063 9.42376 23.1322 9.52715 23.1793 9.64096C23.2265 9.75478 23.2508 9.87677 23.2508 9.99997C23.2508 10.1232 23.2265 10.2452 23.1793 10.359C23.1322 10.4728 23.063 10.5762 22.9758 10.6633Z" fill="white"/>
</svg>
