<svg width="62" height="63" viewBox="0 0 62 63" fill="none" xmlns="http://www.w3.org/2000/svg">
<circle cx="31" cy="31.9722" r="31" fill="#EAEAEA"/>
<path d="M30.6023 33.2171C33.0255 33.2171 34.9898 31.2528 34.9898 28.8296C34.9898 26.4065 33.0255 24.4421 30.6023 24.4421C28.1792 24.4421 26.2148 26.4065 26.2148 28.8296C26.2148 31.2528 28.1792 33.2171 30.6023 33.2171Z" stroke="#222222" stroke-width="2" stroke-linecap="round" stroke-linejoin="round"/>
<path d="M41.5702 28.8298C41.5702 38.7016 30.6015 46.3797 30.6015 46.3797C30.6015 46.3797 19.6328 38.7016 19.6328 28.8298C19.6328 25.9207 20.7884 23.1308 22.8455 21.0737C24.9025 19.0167 27.6924 17.8611 30.6015 17.8611C33.5106 17.8611 36.3005 19.0167 38.3576 21.0737C40.4146 23.1308 41.5702 25.9207 41.5702 28.8298V28.8298Z" stroke="#222222" stroke-width="2" stroke-linecap="round" stroke-linejoin="round"/>
</svg>
