<svg width="62" height="63" viewBox="0 0 62 63" fill="none" xmlns="http://www.w3.org/2000/svg">
<circle cx="31" cy="31.2896" r="31" fill="#FFECBB"/>
<path d="M26.8733 30.2255C28.1066 32.7724 30.1661 34.8266 32.7162 36.0534C32.9043 36.1425 33.1124 36.181 33.3199 36.1653C33.5275 36.1495 33.7273 36.08 33.8998 35.9635L37.6453 33.4616C37.8108 33.3493 38.002 33.2808 38.2011 33.2625C38.4002 33.2442 38.6007 33.2766 38.7839 33.3567L45.7954 36.368C46.0351 36.4678 46.2353 36.6435 46.3652 36.8682C46.4951 37.0929 46.5476 37.3541 46.5146 37.6115C46.2923 39.3461 45.4457 40.9402 44.1331 42.0956C42.8205 43.251 41.1319 43.8886 39.3832 43.8889C33.9793 43.8889 28.7967 41.7423 24.9756 37.9211C21.1545 34.1 19.0078 28.9175 19.0078 23.5136C19.0082 21.7649 19.6458 20.0763 20.8012 18.7637C21.9566 17.4511 23.5507 16.6044 25.2852 16.3822C25.5427 16.3491 25.8038 16.4016 26.0285 16.5316C26.2532 16.6615 26.429 16.8617 26.5287 17.1013L29.5401 24.1278C29.6184 24.3081 29.6511 24.5049 29.6355 24.7009C29.6198 24.8968 29.5562 25.0859 29.4502 25.2515L26.9482 29.0569C26.8368 29.229 26.7714 29.4268 26.7583 29.6314C26.7452 29.836 26.7848 30.0405 26.8733 30.2255V30.2255Z" stroke="#DEAA27" stroke-width="2" stroke-linecap="round" stroke-linejoin="round"/>
</svg>
